<?xml version="1.0" encoding="utf-8"?>
<!-- Generator: Adobe Illustrator 21.1.0, SVG Export Plug-In . SVG Version: 6.00 Build 0)  -->
<svg version="1.1" id="Layer_1" xmlns="http://www.w3.org/2000/svg" xmlns:xlink="http://www.w3.org/1999/xlink" x="0px" y="0px"
	 viewBox="0 0 612 792" style="enable-background:new 0 0 612 792;" xml:space="preserve">
<style type="text/css">
	.st0{fill:#FFFFFF;}
</style>
<rect x="1" y="91.6" width="610" height="591.4"/>
<g>
	<g>
		<path class="st0" d="M254,411H114.5v154H55V226.5h59.5v141H254v-141h59.5V565H254V411z"/>
	</g>
</g>
<g>
	<g>
		<path class="st0" d="M561.5,249.5l-24.5,43c0.5,0-39.5-23-70.5-23c-24,0-44.5,11-44.5,35c0,30,19,47,60,63c53,21,85,44,85,99.5
			c0,51-39.5,102-112.5,102c-52,0-95-24.5-108.5-32.5l21-46c-0.5,0,55,32,83.5,32c35,0,52.5-18.5,52.5-49.5c0-30-19-41-50-53.5
			c-60-25-96-48.5-96-106.5c0-49,44.5-90,106.5-90C510,223,552,243,561.5,249.5z"/>
	</g>
</g>
<g>
</g>
<g>
</g>
<g>
</g>
<g>
</g>
<g>
</g>
<g>
</g>
</svg>
